<?xml version="1.0" encoding="utf-8"?>
<!-- Generator: Adobe Illustrator 26.3.1, SVG Export Plug-In . SVG Version: 6.00 Build 0)  -->
<svg version="1.1" id="Layer_1" xmlns="http://www.w3.org/2000/svg" xmlns:xlink="http://www.w3.org/1999/xlink" x="0px" y="0px"
	 viewBox="0 0 187.4 48" style="enable-background:new 0 0 187.4 48;" xml:space="preserve">
<style type="text/css">
	.st0{fill:#FFFFFF;}
	.st1{fill:#A8529C;}
</style>
<path class="st0" d="M89.9,32.5V31c-1.1,1.3-2.3,1.7-4.1,1.7c-1.6,0-3.1-0.5-4-1.5c-1.6-1.6-1.7-4.2-1.7-7s0.1-5.3,1.7-6.9
	c0.9-0.9,2.3-1.5,4-1.5s2.9,0.4,4,1.6V10h4.1v22.5H89.9z M87,19.5c-2.5,0-2.8,2.1-2.8,4.7s0.3,4.7,2.8,4.7s2.8-2.1,2.8-4.7
	S89.4,19.5,87,19.5z"/>
<path class="st0" d="M100,25.5c0,2.2,1.3,3.7,3.6,3.7c1.8,0,2.7-0.5,3.7-1.5l2.5,2.4c-1.7,1.7-3.3,2.6-6.3,2.6
	c-3.9,0-7.6-1.8-7.6-8.4c0-5.4,2.9-8.4,7.2-8.4c4.6,0,7.2,3.3,7.2,8v1.7H100V25.5z M105.9,20.9c-0.4-1-1.4-1.7-2.8-1.7
	s-2.3,0.7-2.8,1.7c-0.3,0.6-0.3,1-0.4,1.8h6.3C106.2,22,106.2,21.5,105.9,20.9z"/>
<path class="st0" d="M124.1,31.2c-0.9,0.9-2.4,1.5-4,1.5c-1.7,0-2.9-0.4-4-1.6v7.5H112V16h4v1.6c1.1-1.3,2.3-1.7,4.1-1.7
	c1.6,0,3.1,0.5,4,1.5c1.6,1.6,1.7,4.2,1.7,6.9S125.7,29.6,124.1,31.2z M119,19.5c-2.5,0-2.8,2.1-2.8,4.7s0.3,4.7,2.8,4.7
	s2.8-2.1,2.8-4.7S121.4,19.5,119,19.5z"/>
<path class="st0" d="M147.6,32.5v-10c0-2.2-1.4-3-2.7-3s-2.8,0.8-2.8,2.9v10.1H138v-10c0-2.2-1.4-3-2.7-3s-2.8,0.8-2.8,3v10h-4.1V16
	h4v1.5c1.1-1.1,2.6-1.7,4.1-1.7c1.8,0,3.3,0.7,4.4,2.1c1.4-1.5,2.9-2.1,4.9-2.1c1.6,0,3.1,0.5,4,1.5c1.3,1.3,1.8,2.9,1.8,4.7v10.5
	H147.6z"/>
<path class="st0" d="M163.3,32.5v-1.4c-1.1,1.1-2.2,1.6-4,1.6c-1.9,0-3.3-0.5-4.2-1.5c-0.9-0.9-1.4-2.2-1.4-3.7
	c0-2.6,1.8-4.8,5.7-4.8h3.8v-0.8c0-1.8-0.9-2.6-3.1-2.6c-1.5,0-2.3,0.4-3.2,1.4l-2.6-2.6c1.6-1.8,3.2-2.3,5.9-2.3c4.6,0,7,2,7,5.8
	v10.8L163.3,32.5L163.3,32.5z M163.3,25.5h-3.1c-1.6,0-2.4,0.7-2.4,1.9c0,1.1,0.8,1.9,2.5,1.9c1,0,1.7-0.1,2.4-0.8
	c0.5-0.4,0.6-1,0.6-2.1V25.5z"/>
<path class="st0" d="M182,31.2c-0.9,0.9-2.4,1.5-4,1.5c-1.7,0-2.9-0.4-4-1.6v7.5h-4.1V16h4v1.6c1.1-1.3,2.3-1.7,4.1-1.7
	c1.6,0,3.1,0.5,4,1.5c1.6,1.6,1.7,4.2,1.7,6.9S183.6,29.6,182,31.2z M176.9,19.5c-2.5,0-2.8,2.1-2.8,4.7s0.3,4.7,2.8,4.7
	s2.8-2.1,2.8-4.7S179.3,19.5,176.9,19.5z"/>
<path class="st0" d="M20.1,40.8c0.1-0.3,0.4-0.3,0.6-0.6c-0.3,0.1-0.5,0.2-0.6-0.2c0,0-0.1,0-0.2,0s-0.3,0.3-0.4,0
	c-0.1-0.2,0.2-0.2,0.3-0.3c0.1-0.1,0.2-0.1,0.2-0.3c-0.4,0.1-0.8-0.2-1.2,0.2c-0.1,0-0.2,0-0.3,0c-0.3,0-0.5,0.1-0.6,0.4l-0.1,0.1
	c-0.1,0,0,0,0,0c-0.3-0.1-0.6,0.1-0.8,0.3c-0.3,0.3-0.7,0.5-1,0.7c-0.2-0.1-0.3-0.1-0.3-0.2c1.1-0.8,2.3-1.6,3.5-2.5
	c-0.4-0.1-0.6,0-0.6-0.4c0-0.3-0.4-0.6-0.6-0.9c-0.1-0.1-0.2-0.1-0.4,0c-0.2-0.2-0.4,0.1-0.6,0c-0.1,0-0.2,0.1-0.3,0.1
	c-0.1,0.1-0.2,0.1-0.2-0.1c0.3-0.2,0.5-0.4,0.8-0.5c0.2-0.1,0.5-0.2,0.4-0.4c0-0.3-0.3-0.3-0.6-0.3c-0.1-0.1-0.2-0.2-0.1-0.2
	c0.3-0.2-0.1-0.2-0.1-0.3c-0.2-0.3,0.1-0.5,0.2-0.7c0.1-0.1,0.2-0.2,0.3-0.3c0-0.1,0-0.1-0.1,0c-0.2,0-0.4,0.1-0.6,0.1l0,0
	c0-0.2,0-0.2-0.2-0.2c-0.6,0.2-1.2,0.4-1.7,0.6c-0.5,0.2-1,0.3-1.4,0.5c-0.2,0.1-0.4,0.1-0.5-0.1c0.6-0.3,1.3-0.5,2-0.8
	c0.6-0.2,1.1-0.5,1.7-0.7c0.2-0.1,0.5-0.2,0.9-0.3c-0.5-0.1-0.8-0.3-1.1-0.2c-0.1,0-0.1-0.1,0-0.2c0.3-0.1,0.6-0.3,0.9-0.4
	c0.3-0.1,0.5-0.1,0.5,0.3c0,0.3,0.1,0.4,0.4,0.2c0.1-0.1,0.3-0.1,0.4,0.1c0.1,0.2-0.2,0.2-0.3,0.2c-0.1,0-0.2,0.1-0.2,0.2
	c0.2,0.2,0.4-0.1,0.6,0c0,0.2-0.1,0.1-0.2,0.2c-0.4,0.3-0.6,0.6-0.3,1V35c0,0.7,0,0.7,0.8,0.6c-0.6,0.4-0.5,0.7-0.1,1
	c0.1,0.1,0.4,0.3,0.3,0.6c0,0.2,0.1,0.2,0.3,0.1c0.1-0.1,0.3-0.1,0.4-0.2c0.1-0.1,0.2-0.1,0.3,0c0,0.1-0.1,0.1-0.1,0.1
	c-0.5,0.2-0.3,0.6-0.2,0.9c0.1,0.2,0.2,0.2,0.3,0c0.1-0.1,0.2-0.3,0.6-0.3c-0.5,0.7-0.1,1.2,0.3,1.7c0.5,0.7,0.9-0.2,1.4-0.2
	c-0.6,0.4-1,1.2-1.7,1.5c0,0-0.1,0-0.1,0.1c-0.1,0-0.1,0.1-0.2,0.1C20.3,41.2,20.1,41.2,20.1,40.8z"/>
<path class="st0" d="M27.3,48c0.1-0.2,0.1-0.3,0-0.5c-0.1-0.1-0.1-0.2,0-0.2c0.4-0.2,0.5-0.6,0.8-1c0.1,0.1,0.1,0.1,0,0.2
	c0.1,0.1-0.3,0.3,0,0.4c0.1,0,0.1,0.1,0.1,0.2c0,0.3,0.4,0.4,0.4,0.8c0,0,0,0,0.1,0c0.3-0.2,0.4-0.6,0.6-0.9
	c0.1-0.2,0.1-0.4,0.3-0.3c0.2,0.1,0,0.4,0,0.5c-0.2,0.3-0.1,0.5-0.2,0.9c0.2-0.1,0.3-0.1,0.4-0.2c0.1,0,0.1,0,0.2,0
	c0,0.1,0.1,0.2,0.1,0.2h-2c0,0,0-0.1-0.1-0.1c-0.1-0.1-0.2,0-0.3,0.1L27.3,48z"/>
<path class="st0" d="M16.5,16c-0.2,0.1-0.4-0.1-0.6-0.2c-0.1,0-0.3-0.2-0.4-0.1c-0.2,0.2-0.3,0.4-0.4,0.7c-0.1,0.2,0.2,0.2,0.2,0.4
	c0,0.2-0.3-0.1-0.4,0.2c0,0.2,0.3,0.2,0.3,0.3c0,0.2-0.4-0.1-0.4,0.3c0.1,0.4,0.4,0.5,0.6,0.5c0,0.1,0,0.1-0.1,0.2
	c0,0.1-0.2,0-0.2,0.2c0,0.1,0,0.1-0.1,0.2c-0.1,0-0.2,0-0.3-0.1c-0.1,0-0.2,0-0.2,0.1c-0.1,0.2-0.6,0.9-0.7,0.9h-0.1
	c-0.1,0-0.1-0.1-0.1-0.2c0.1-0.1,0.1-0.3,0.2-0.3c0.6-0.3,0.4-1,0.6-1.5c0.2-0.6,0.2-1.3,0.7-1.8c0.1-0.1,0-0.2-0.1-0.3
	c-0.2-0.2-0.4-0.4-0.5-0.7l0,0h0.1c0.1,0,0.3,0.1,0.4,0.1c0.2,0.1,0.4,0.1,0.4-0.2c0-0.2,0.3-0.4,0.1-0.7c0-0.1,0.1-0.1,0.2-0.1
	c0.1,0,0.3,0.1,0.3-0.1c0-0.2-0.2-0.2-0.2-0.3c-0.2-0.2-0.5-0.2-0.7-0.5c0-0.1,0-0.1,0.1-0.1c0.2,0.1,0.4,0.2,0.5,0.3
	c0.4,0.3,0.6,0,0.7-0.3c0.2-0.5,0.1-0.7-0.4-0.9c-0.7-0.4-1.4-0.8-2.1-1.3v-0.1c0.8,0.5,1.7,0.9,2.5,1.4c0.3,0.2,0.5,0.1,0.5-0.2
	c0-0.2,0.1-0.3,0.3-0.4c0.2,0,0.1-0.2,0.2-0.3c0.5-0.6,0.8-1.4,1.5-1.9c0,0,0.1,0,0.2,0c-0.3,0.4-0.5,0.7-0.8,1
	c-0.2,0.2-0.3,0.4-0.1,0.5c0.3,0.3,0.1,0.5-0.1,0.6c-0.4,0.2-0.8,0.6-0.9,0.9c-0.2,0.5-0.7,0.7-0.9,1.3c-0.1,0.3,0.2,0.4,0.2,0.6
	c-0.3,0-0.7,0.1-0.5,0.6c0.1,0.1,0,0.1-0.1,0.2c-0.5,0.4-0.5,0.4,0,0.8c0.1,0.1,0.2,0.3,0.4,0.3C16.5,15.9,16.6,15.9,16.5,16z"/>
<path class="st0" d="M29.7,0c0,0.1,0.1,0.3,0.1,0.4C30,1,30,1.1,29.5,1.3c0,0.1,0.1,0.3,0,0.4c-0.2,0-0.2-0.2-0.4-0.3
	c-0.3,0.1-0.6,0.2-0.9,0.3c-0.6,0.3-0.7,0.3-1-0.4h-0.1L27,1.4c0-0.1,0.1-0.2,0.1-0.3s0-0.2-0.1-0.3c-0.1,0-0.2,0.2-0.4,0.1
	c-0.1,0-0.5-0.3-0.6-0.2c-0.1,0.2,0.3,0.6,0.3,0.8c0,0,0,0.1,0.1,0.1c0,0.1,0.1,0.1,0.1,0.2c0,0,0,0,0.1,0h0.1c0.3,0.1,0,1,0.7,0.6
	v0.1c0.2,0.3,0.3,0.6,0.5,0.9c0.1,0.1,0.2,0,0.2-0.1C28,3.1,27.9,3,27.8,2.8s-0.3-0.4,0-0.5c0.3-0.2,0.5-0.5,0.9-0.3
	c0.5,0.2,1.1,0.5,1.1,1.2c0,0.1,0,0.2,0.2,0.3c0.2-0.2,0-0.3,0-0.5c-0.1-0.4-0.3-0.7-0.1-1.2c0-0.1,0-0.2,0.1-0.2s0.2,0.1,0.2,0.2
	c0.2,0.3,0.2,0.7,0.4,1c0.1,0,0.1,0,0.2,0c-0.1-0.4-0.2-0.9-0.4-1.3c-0.1-0.3,0-0.3,0.2-0.3c0.3,0,0.7-0.1,0.7,0.4
	c0,0.1,0,0.4,0.2,0.3c0.2-0.1,0.1-0.3,0-0.4l-0.1-0.1c-0.1-0.2,0-0.3,0.1-0.4c0.1-0.2,0.2,0,0.3,0c0.1,0,0.3,0.1,0.4,0
	c0.1-0.2,0-0.3-0.1-0.4s-0.2-0.1-0.3,0c-0.2,0.2-0.5,0-0.8,0.2c-0.2,0.1-0.5,0.1-0.8,0.2C30.1,1.1,30,1,30,0.9
	C29.9,0.6,29.8,0.4,29.7,0L29.7,0L29.7,0z"/>
<path class="st0" d="M61.8,38.9c-0.3-0.2-0.5-0.3-0.8-0.5c-0.1-0.1-0.3-0.1-0.4,0c-0.1,0.1-0.1,0.3,0.1,0.3c0.1,0.1,0.2,0.1,0,0.2
	c-0.3,0.2-0.1,0.4,0.1,0.6c-0.2-0.1-0.4-0.1-0.5-0.2c-0.1,0-0.2,0-0.3,0.1s0,0.2,0.1,0.2c0.3,0.2,0,0.4-0.1,0.4
	c-0.6-0.1-0.6,0.4-0.8,0.7c-0.1,0.1-0.1,0.2-0.2,0.3c-0.5,0.2-0.4,0.4-0.1,0.8c0.3,0.3-0.2,0.2-0.3,0.3c-0.3,0.4-0.5,0.2-0.7-0.1
	c0.1-0.1,0.2,0,0.3,0c0.2,0.1,0.3-0.1,0.1-0.2c-0.2-0.2-0.2-0.4-0.3-0.6c-0.2-0.4,0-0.6,0.4-0.5c0.3,0,0.5,0,0.3-0.4
	c-0.1-0.1,0-0.3,0.1-0.3c0.5-0.1,0.2-0.3,0-0.5c0.7-0.1,0.8-0.2,0.9-1.3c0.4,0.2,0.5,0,0.6-0.4s0.3-0.7-0.1-1c0,0,0.1-0.1,0.1-0.2
	c0.1-0.1,0.2-0.1,0.2-0.3c0-0.1-0.1-0.2-0.1-0.3c0,0,0-0.1,0.1-0.1c0.6,0.2,1.2,0.5,1.7,0.8c0.1,0.1,0.1,0.2,0,0.2
	c-0.2-0.1-0.3-0.1-0.5-0.2c-0.1,0-0.4-0.1-0.2,0.2c0,0.1,0,0.2-0.1,0.2C61,37,61,37.4,60.8,37.5c-0.1,0,0,0.2,0.1,0.2
	c0.3,0.2,0.5,0.3,0.8,0.5C61.9,38.7,61.9,38.8,61.8,38.9z"/>
<path class="st1" d="M62.7,15.6c0.2-0.2,0.4-0.2,0.6-0.3c0.2,0,0.4-0.3,0.3-0.3c-0.5-0.3-0.2-1.2-0.9-1.2c-0.1-0.3,0.5-0.1,0.2-0.6
	c-0.2-0.4-0.4-0.4-0.8-0.2c0.2-0.4,0.2-0.7,0.1-1.1c-0.1-0.1-0.1-0.2,0-0.3c0.4-0.4,0.9-0.5,1.3-0.8c0.1-0.1,0.3-0.2,0.4,0
	s-0.1,0.2-0.2,0.3c-0.5,0.1-0.8,0.6-1.3,0.6c0.4,0.6,0.5,0.6,1.1,0.3c0.7-0.4,1.4-0.7,2.1-1.1c0.6-0.3,1.2-0.6,1.8-1
	c0.1-0.1,0.2-0.1,0.3-0.1c0.1,0,0.2-0.1,0.2,0c0.1,0.1,0,0.2-0.1,0.2c-0.9,0.3-1.7,0.9-2.5,1.3c-0.7,0.3-1.2,0.7-1.9,1
	c-0.4,0.1-0.3,0.4,0,0.6c0,0,0.1,0,0.1,0.1c0.3,0.2,0.6,0.4,0.1,0.7c-0.1,0.1-0.2,0.2-0.2,0.4c0.1,0.2,0.2,0.1,0.4,0.1
	c0.1,0,0.2,0,0.2,0.1c0.1,0.1,0,0.2-0.1,0.3c-0.3,0.2-0.3,0.3,0.1,0.4c0.3,0.1,0.3,0.3,0,0.5c-0.2,0.2-0.5,0.1-0.7,0.3
	C62.8,15.8,62.8,15.8,62.7,15.6z"/>
<path class="st0" d="M13.7,25.1c-1,0.1-2,0.1-3,0c-0.1-0.3,0.3-0.3,0.3-0.5c0.6,0,1.3-0.1,1.9,0.1c0.2,0,0.2-0.1,0.3-0.2
	c0-0.2-0.1-0.2-0.2-0.2c-0.5,0-0.9,0-1.4-0.1c-0.6,0-1.2,0-1.7-0.1c-0.1,0-0.1-0.1,0-0.2c0.9-0.1,1.7,0,2.6,0.1c0.7,0,0.7,0,0.8-0.7
	s0-1.3,0.1-2c0.1-0.3,0-0.5-0.4-0.5c-0.5-0.1-1.1-0.2-1.6-0.3c0-0.1,0.1-0.1,0.1-0.1c0.5,0,1,0.1,1.4,0.2c0.5,0.1,0.7,0,0.7-0.5
	c0-0.1,0-0.3,0.3-0.3c0,0.4-0.1,0.8-0.2,1.2c0,0.1-0.1,0.2-0.1,0.3c-0.2,1-0.1,1.1,1.1,1.2c0.2,0,0.3,0,0.5,0.1c0,0.1,0,0.1-0.1,0.1
	H15c-0.5,0-1-0.2-1.5-0.1c0,0.7-0.3,1.3,0.1,2c0,0,0,0.1,0,0.2C13.8,24.9,13.8,25,13.7,25.1z"/>
<path class="st1" d="M59.4,9.7c0.4-0.2,0.2-0.4,0-0.7l0,0C60,8.8,60.5,8.5,61,8.2c0.8-0.6,1.6-1.2,2.4-1.8c0.1,0.2,0.1,0.2-0.1,0.3
	c-0.7,0.5-1.3,1-2,1.5c-0.1,0.1-0.4,0.2-0.3,0.4c0.1,0.2,0.3,0,0.5-0.1c0.8-0.6,1.5-1.1,2.3-1.7c0.5-0.4,1-0.7,1.6-1.1
	c0,0.4-0.3,0.5-0.5,0.6c-1.1,0.8-2.2,1.5-3.3,2.3c-0.2,0.2-0.4,0.4-0.7,0.5l-0.1,0.1c0.2,0.7-0.5,0.6-0.8,0.9c-0.1,0-0.2,0-0.2,0
	c0.1-0.1,0-0.1-0.1-0.1s-0.1-0.1-0.2-0.1C59.5,9.8,59.5,9.8,59.4,9.7z"/>
<path class="st1" d="M14.7,14.7c0.1,0.2,0.2,0.5,0.4,0.7c-0.1,0-0.1,0-0.2,0l0,0c-1.9-0.8-3.7-1.5-5.6-2.3C9.2,13.1,9.1,13,9,13
	c-0.3,0-0.5-0.2-0.4-0.4s0.3-0.2,0.5-0.1c1.4,0.6,2.7,1.1,4.1,1.6c0.4,0.1,0.7,0.1,1.1,0.3C14.5,14.5,14.6,14.6,14.7,14.7z"/>
<path class="st0" d="M64.9,31.3c-0.4-0.1-0.8-0.1-1.1-0.2s-0.4,0-0.5,0.2c0,0.2-0.1,0.3-0.1,0.5c-0.1,0.3-0.1,0.6,0.4,0.7
	c0.8,0.2,1.6,0.5,2.4,0.8c0,0.1,0,0.1,0,0.2c-0.7-0.1-1.3-0.3-1.9-0.5c-0.3-0.1-0.4-0.1-0.5,0.3c-0.1,0.4,0,0.8-0.1,1.2
	c0,0.2,0.1,0.1,0.2,0.2c0.4,0.2,0.9,0.3,1.3,0.6c-0.1,0.1-0.2,0.1-0.3,0.1c-0.5-0.1-0.9-0.4-1.4-0.5c-0.2,0-0.3-0.2-0.4,0
	c-0.1,0.1-0.2,0.3,0,0.5c0.1,0.1,0.1,0.4-0.2,0.4c-0.1,0-0.2,0.1-0.2-0.1c0.1,0,0.3-0.1,0.2-0.2c-0.3-0.6,0.3-1,0.4-1.5
	c0-0.1,0.1-0.2,0.2-0.4c0.2-0.4,0.2-0.8-0.4-0.9c-0.1,0-0.2-0.1-0.4-0.2c-0.1-0.1,0-0.2,0.1-0.3c0.2-0.1,0.4,0.2,0.5,0
	s0.2-0.5-0.1-0.6c0,0-0.1-0.1,0-0.1l0.1-0.1c0.4,0.1,0.2-0.7,0.7-0.5c0.4,0.1,0.8,0.2,1.2,0.2C64.9,31.1,65,31.2,64.9,31.3z"/>
<path class="st0" d="M24.5,5c-0.1-0.1-0.2-0.2-0.3-0.4c-0.1-0.1-0.2-0.3-0.3-0.2c-0.2,0.1,0,0.2,0.1,0.3c0,0.1,0.1,0.1,0,0.2
	c-0.3-0.3-0.7-0.2-1-0.5c-0.1-0.2-0.2,0-0.3,0.1c-0.2,0.2-0.3,0.5-0.1,0.8c0.1,0.3,0.5,0.4,0.5,0.7c0,0.1,0,0.2-0.1,0.2
	c-0.2-0.3-0.4-0.7-0.7-1c-0.3-0.3-0.1-0.6,0.2-0.9C22.6,4.2,22.7,4,22.9,4C23,4.1,23,4.2,23.1,4.2c0.1,0.1,0.1,0.4,0.4,0.3
	c0.2-0.1,0.2-0.2,0.1-0.4c0-0.1,0-0.2,0.1-0.1c0.5,0.3,0.7-0.5,1.2-0.3c0.2,0.1,0.7-0.3,0.7-0.7c0-0.1,0.1-0.1,0.1-0.1
	c0.3,0.2,0.4-0.1,0.6-0.3s0-0.3-0.1-0.5c-0.1-0.3-0.3-0.7-0.5-0.9c0-0.2,0-0.3,0.2-0.4c0.4,0.2,0.3,0.7,0.6,1l0,0
	c0.1,0,0.1,0.1,0.1,0.2l0,0c0,0.4,0.3,0.8,0.3,1.2h-0.1c-0.3-0.3-0.6,0-0.8,0c-0.1,0,0.1,0.2,0.1,0.3c-0.1,0.1-0.1,0.1-0.2,0
	s-0.2-0.1-0.3,0c-0.1,0.1,0,0.2,0,0.3c0.1,0,0.1,0.2,0.2,0.3h-0.1c-0.2-0.1-0.3-0.4-0.5-0.6c-0.2,0.3,0.2,0.3,0.1,0.6
	c-0.2-0.1-0.4-0.3-0.5,0.1c-0.1,0.2-0.3,0.1-0.5,0.1c-0.1,0.3,0.2,0.3,0.2,0.5C24.6,4.9,24.5,5,24.5,5z"/>
<path class="st0" d="M66.7,22.7c-0.4,0.1-0.7,0.1-1.1,0.2l0,0l0,0l0,0l0,0l0,0c-0.3,0-0.5,0-0.8,0c-0.5,0.1-0.9-0.2-1.3-0.5
	c0.1-0.2,0.2-0.1,0.3-0.1s0.3,0,0.3-0.2c0-0.1-0.1-0.3-0.3-0.2c-0.1,0-0.2,0.1-0.2,0c-0.1-0.2,0.1-0.1,0.2-0.2
	c0.3-0.1,0.3-0.3,0.1-0.5c-0.1-0.1-0.2-0.1-0.1-0.2c0.3-0.4-0.2-0.2-0.2-0.3c-0.1-0.1-0.1-0.1,0-0.2c0.6,0,0.4-0.4,0.2-0.6
	c-0.1-0.2-0.3-0.3-0.3-0.5c0.5-0.1,1-0.2,1.5-0.4c0.1,0.2,0.5-0.1,0.5,0.2c-0.3,0.1-0.6,0.2-0.9,0.2c-0.1,0-0.6,0.1-0.2,0.5
	c0.1,0.1,0.2,0.2,0,0.3c-0.2,0.1-0.3,0.1-0.3,0.3c0.1,0.3,0.3,0,0.5,0.1c0,0.2-0.2,0.1-0.3,0.2c-0.1,0.2,0,0.4,0,0.6
	c0.1,0.2,0.2,0,0.3,0s0.2,0,0.3,0.1v0.1c-0.3,0.1-0.2,0.2-0.1,0.3c0,0.1,0,0.2-0.1,0.3c-0.1,0.1-0.5,0.1-0.4,0.4s0.4,0.1,0.6,0.1
	c0.6,0,1.2-0.2,1.9-0.1C66.8,22.6,66.7,22.6,66.7,22.7z"/>
<path class="st1" d="M24.6,48c0.1-0.2,0.2-0.4,0.3-0.6c0.1-0.2,0.2-0.5,0.4-0.6c0.2,0.1,0.2,0.3,0.2,0.4v0.1v0.1c0,0-0.1,0.1,0,0.1
	c0,0,0-0.1,0.1-0.1c0-0.1,0.1-0.1,0.2-0.1s0.1,0,0.2,0.1c-0.1,0.3-0.1,0.5-0.4,0.6H24.6z"/>
<path class="st1" d="M21,48c0.1-0.1,0.1-0.1,0.2-0.2c0.4-0.5,0.8-1,1.1-1.6c0.1-0.2,0.3-0.4,0.5-0.5c0.1-0.1,0.3-0.1,0.3,0.1
	c-0.5,0.8-1.1,1.5-1.6,2.2H21z"/>
<path class="st1" d="M12.9,30.3c-0.5,0.1-0.9,0.2-1.4,0.4c-0.1,0-0.3,0-0.2,0.2c0,0.1,0.2,0.2,0.3,0.2c0.3,0,0.5,0,0.8-0.1l0,0
	c-0.5,0.3-1.1,0.4-1.7,0.5c-0.1,0-0.2,0-0.3,0c-0.2,0.1-0.4,0.2-0.4,0c-0.1-0.2-0.2-0.5,0-0.7c0.4-0.3,0.8-0.4,1.2-0.5
	c0.1,0,0.2,0,0.3,0c0.4-0.8,1.3-0.5,1.9-0.7c0.1,0,0.2-0.1,0.3-0.1l0.1,0.1c0,0.1-0.1,0.2-0.1,0.3L13.6,30
	C13.4,30.1,13.1,30.2,12.9,30.3z"/>
<path class="st1" d="M66.6,25c1-0.1,2-0.1,3-0.1c0.6,0,1.2,0.2,1.7,0.2c0.2,0,0.3,0.1,0.4,0.2c-0.2,0.2-0.5,0.1-0.7,0.1
	c-1,0-2,0-3,0c-0.4,0-0.7,0.3-1.1,0.2c-0.5-0.1-1.1,0.1-1.7-0.1c0.1-0.4,0.6-0.3,0.9-0.4C66.2,25,66.4,25.1,66.6,25z"/>
<path class="st1" d="M11.1,24.7c0.1,0.3-0.3,0.3-0.3,0.5c-0.4,0.2-0.9,0.1-1.3,0.1c-0.9,0-1.9,0-2.8,0c-0.2,0-0.5,0-0.4-0.3
	c0-0.3,0.3-0.3,0.5-0.3c1.4,0,2.8,0,4.2,0C10.9,24.6,11,24.7,11.1,24.7z"/>
<path class="st0" d="M13.7,29.4L13.7,29.4c-0.1-0.4-0.2-0.9-0.2-1.4c0-0.2-0.1-0.3-0.3-0.3c-1.1,0.1-2.1,0.2-3.2,0.3
	c-0.1-0.1-0.1-0.2,0-0.2c1.1-0.1,2.1-0.2,3.2-0.3c0.2,0,0.3-0.1,0.3-0.3c0-0.1,0-0.3,0-0.4c0-0.4-0.2-0.5-0.5-0.5
	c-1,0.1-1.9,0.1-2.9,0.1c-0.1-0.1,0-0.2,0-0.2c0.8,0,1.7-0.1,2.5-0.1c0.5,0,0.9-0.2,1.4,0c0.1,0,0.1,0.1,0,0.1
	c-0.2,0-0.4,0.1-0.3,0.4c0.1,0.3,0.1,0.6,0.1,0.8c0,0.3,0.1,0.5,0.3,0.7c-0.3,0.2-0.3,0.5-0.2,0.8c0,0.1,0.1,0.2,0.1,0.3
	C13.9,29.3,13.8,29.4,13.7,29.4z"/>
<path class="st0" d="M54.8,5.9c0.5,0.3,0.7-0.2,0.9-0.5c0.2-0.2,0.3-0.5,0.6-0.6h0.1v0.1h0.2l-0.2,0.2c-0.2,0.3-0.3,0.5-0.5,0.7
	c-0.3,0.4-0.7,0.7-1,1.1c-0.2,0.3-0.2,0.5,0,0.6c0.3,0.1,0.4,0.3,0.7,0.4C55.8,8,56,8,56.2,7.8s0.4-0.6,0.8-0.5c0,0,0,0,0,0.1l0,0
	c0,0.1-0.1,0.1-0.1,0.2c-0.1,0.2-0.3,0.3-0.4,0.5c-0.2,0.2-0.3,0.6-0.7,0.4c-0.1,0-0.3,0.2-0.5,0.3c0.4-0.5,0.1-0.9-0.3-1
	c-0.2-0.1-0.4-0.2-0.6-0.3C53.9,7.3,54.3,7,54.3,7c0.3-0.2,0.3-0.5,0.1-0.8c0,0,0,0,0-0.1V6C54.6,6,54.7,5.9,54.8,5.9z"/>
<path class="st0" d="M38.8,0c0,0.3,0,0.5,0,0.8c0,0.2,0,0.4,0.3,0.4c0.9,0.1,1.9,0,2.8,0.2c0.1,0,0.2,0,0.3-0.1c0,0,0.1,0,0.1,0.1
	c0,0.6-0.6,0.3-0.7,0.2c-0.6-0.2-0.8,0-0.8,0.6c0,0.1-0.1,0.2-0.1,0.3c0,0.2-0.2,0.1-0.3,0.1c-0.2,0-0.1-0.1-0.1-0.2
	c-0.1-0.2,0.1-0.5,0-0.7c0-0.1,0.1-0.4-0.2-0.3c-0.2,0-0.4,0-0.5,0.3c0,0.2,0.2,0.5-0.2,0.5c-0.2,0-0.1-0.4-0.1-0.5
	c0-0.4-0.2-0.4-0.4-0.4c-0.1,0.1-0.2,0-0.2-0.3S38.7,0.3,38.8,0L38.8,0z"/>
<path class="st0" d="M66.6,25c-0.3,0.2-0.7,0.2-1,0.3c-0.1,0-0.3,0-0.3,0.2c-0.2,0.1-0.5-0.1-0.7,0.1h-0.1c-0.1,0.1-0.1,0.2-0.2,0.2
	c-0.1,0.1-0.1,0.1-0.2,0c-0.1,0-0.2-0.1-0.3-0.1l-0.1-0.1c-0.1-0.2,0-0.3,0.1-0.4c0.1,0,0.3,0,0.3-0.1c0.1-0.1-0.1-0.2-0.2-0.3
	c-0.3-0.3-0.4-0.8-1-0.8v-0.1c0.2-0.1,0.4-0.1,0.4-0.5s0.5-0.5,0.8-0.5c0.2,0,0.4,0,0.6,0c0,0.1,0,0.1,0,0.2
	c-0.2,0.1-0.4,0.1-0.6,0.1c-0.2,0-0.5,0-0.4,0.3c0,0.2,0.3,0.2,0.5,0.2s0.5-0.1,0.7,0c0,0.1-0.1,0.1,0,0.1c-0.1,0.1-0.2,0.1-0.3,0.1
	c-0.3-0.1-0.6,0-0.8,0.3c-0.1,0-0.1,0-0.1,0.1c0.3,0.1,0.6,0.2,0.5,0.6c0.1,0.2,0.2,0.2,0.3,0.1C65.3,24.9,65.9,25,66.6,25z"/>
<path class="st1" d="M65.3,19.1c-0.1-0.2-0.4,0-0.5-0.2c1.6-0.4,3.1-0.8,4.7-1.1c0.4-0.1,0.7-0.1,1.1-0.3c0.2-0.1,0.3-0.1,0.4,0.1
	c0,0.2-0.1,0.3-0.3,0.3c-1,0.1-1.9,0.4-2.8,0.6C66.9,18.7,66.1,19,65.3,19.1z"/>
<path class="st1" d="M65.4,30.3c-0.3-0.3-0.7-0.2-1-0.4c0.2-0.3,0.5-0.1,0.8,0c0.3,0,0-0.1,0-0.1c0-0.1,0.1-0.1,0.2-0.1
	c0.8-0.1,1.5,0.1,2.3,0.3c1,0.2,2.1,0.4,3.1,0.6c0.1,0,0.3,0,0.3,0.2s-0.2,0.1-0.3,0c-0.8-0.2-1.7-0.3-2.5-0.5c-0.2,0-0.3,0-0.2,0.2
	c0,0,0,0.1-0.1,0.1h-0.1l0,0l0,0l0,0c-0.2-0.2-0.4-0.1-0.6-0.1C66.6,30.4,66,30.1,65.4,30.3L65.4,30.3z"/>
<path class="st0" d="M20.7,41.9c0.1-0.2,0.2-0.3,0.4-0.5c0.2-0.2,0.5-0.3,0.6-0.1c0.3,0.5,0.5,0.1,0.8-0.1c0.3-0.3,0.5-0.6,1-0.8
	c-1,1.4-1.9,2.8-3.3,3.7c0.1-0.4,0.3-0.6,0.6-0.8c0.4-0.3,0.6-0.6,1-1c0.1-0.1,0.1-0.2,0-0.4c-0.1-0.1-0.2-0.1-0.3,0
	c-0.1,0.1-0.3,0.2-0.4,0.4c-0.2,0.1-0.3,0-0.4-0.1c0-0.3,0.3-0.3,0.4-0.4c0.1-0.1,0-0.1,0.1-0.1c-0.1,0.1-0.2,0.2-0.4,0.2
	C20.7,42,20.7,42,20.7,41.9L20.7,41.9z"/>
<path class="st0" d="M65.5,29.6c-0.1,0-0.1,0.1-0.2,0.1c-0.3,0.3-0.8,0-1.1,0.1c-0.2,0.1-0.4,0-0.5-0.3c0-0.3-0.2-0.4-0.5-0.4
	c-0.1,0-0.1-0.1,0-0.2c0.2,0,0.4,0.1,0.4-0.3s0.1-0.8,0.2-1.2c0.1-0.3-0.1-0.4-0.3-0.4c0,0-0.1-0.1,0-0.1c0.2,0,0.3,0,0.5-0.1
	c0-0.2-0.3-0.2-0.4-0.4c0-0.1,0-0.1,0-0.2c0.1,0,0.2,0,0.3,0c0.1,0,0.2,0,0.2,0.1c0.3,0.1,0.3,0.4,0.6,0.7c-0.5,0.1-0.6,0.2-0.4,0.7
	c0.1,0.2,0,0.7-0.2,0.9c-0.3,0.4,0,0.5,0.2,0.5C64.7,29.4,65.1,29.5,65.5,29.6z"/>
<path class="st1" d="M13,35.3c0.5,0.1,0.9-0.2,1.3-0.3c0.2,0,0.4-0.1,0.6-0.1c-0.9,0.4-1.7,0.8-2.6,1.1c-0.4,0.2-0.8,0.3-1.3,0.5
	c-0.5,0.3-1.1,0.1-1.6,0.4c-0.3,0.1-0.5,0.4-0.9,0.2c0.3-0.4,0.8-0.4,1.1-0.6c0.8-0.4,1.7-0.7,2.6-1C12.5,35.4,12.8,35.5,13,35.3z"
	/>
<path class="st0" d="M56.6,8.2c-0.1-0.1-0.4-0.1-0.1-0.3c0.2-0.1,0.2-0.2,0.4-0.3c0-0.1,0.2-0.1,0.2-0.2l0,0
	c0.1-0.1,0.1-0.2,0.1-0.3l0,0c0.2,0.2,0.6,0.2,0.6,0.6c0.2-0.1,0.3-0.3,0.4-0.4c0.1,0,0.1,0.1,0.1,0.2c-0.1,0.2-0.4,0.3-0.2,0.6
	c0.1,0.2,0.2,0.6,0.6,0.4l0,0c0.2,0,0.3-0.1,0.5-0.3c0.1-0.1,0.1-0.1,0.2-0.1c0.5-0.2,0.8-0.8,1.3-1c0.1,0,0.1,0.1,0.1,0.2
	c-0.3,0.3-0.8,0.5-1.1,0.9c-0.2,0.2-0.6,0.3-0.4,0.8l0,0c-0.3,0.2-0.6,0.1-0.9,0.3c-0.1,0.1-0.2-0.1-0.2-0.2
	c0.3-0.6-0.5-0.6-0.5-1.1c0-0.1-0.1,0-0.2,0.1c-0.1,0.1-0.2,0.2-0.4,0.3c-0.1-0.1-0.1-0.1,0-0.2c0.1-0.2,0.3-0.4,0.3-0.7
	C57.1,7.7,56.9,8,56.6,8.2z"/>
<path class="st1" d="M64.9,31.3c0-0.1-0.1-0.2-0.1-0.3c0-0.1,0-0.1-0.1-0.2c0-0.1,0-0.3-0.1-0.4s-0.1-0.2,0.1-0.2
	c0.3,0.1,0.5,0,0.8,0l0,0c0.4,0.3,0.8,0.2,1.3,0.3c0.9,0.2,1.7,0.4,2.6,0.6c-1.4-0.1-2.7-0.5-4.1-0.7c0.2,0.6,0.6,1,1.2,1
	c0.1,0,0.3,0,0.4,0.3C66.1,31.8,65.5,31.6,64.9,31.3z"/>
<path class="st1" d="M28.8,0C28.9,0.2,29,0.3,29,0.5c0.2,0.3,0.1,0.6,0.4,0.9c0.3,0.1,0.3,0.3,0.3,0.6c-0.2-0.1-0.5-0.2-0.5-0.5
	c-0.1-0.5-0.3-1-0.5-1.5H28.8z"/>
<path class="st1" d="M15.7,40.9c0.1,0.1,0.1,0.1,0.2,0.2c-0.2,0.5-0.8,0.7-1.2,0.9c-0.7,0.5-1.4,1-2.1,1.5c-0.1,0.1-0.2,0.1-0.3,0.2
	c-0.1,0.1-0.2,0.1-0.3,0c-0.1-0.2,0-0.3,0.1-0.3C13.3,42.5,14.4,41.7,15.7,40.9C15.6,40.9,15.7,40.9,15.7,40.9z"/>
<path class="st0" d="M15.3,30.8C15.4,30.8,15.4,30.8,15.3,30.8c0.2-0.2,0.6,0,0.5-0.3c-0.1-0.4-0.4,0-0.6,0
	c-0.1-0.1-0.1-0.1-0.1-0.2c0.2-0.1,0.4-0.1,0.6-0.1c0.2-0.1,0.5-0.2,0.4,0.3c0,0.2,0.2,0.4,0.5,0.4c-0.1,0.2-0.4,0.3-0.3,0.6
	c0.1,0.2-0.2,0.2-0.3,0.3c-1.1,0.4-2.1,0.7-3.3,0.9c-0.1-0.1-0.1-0.1,0-0.2c0.5-0.3,1.1-0.3,1.7-0.5c0.4-0.1,0.8-0.2,1.3-0.4
	c0.2,0,0.3-0.1,0.3-0.3c-0.1-0.5-0.3-0.3-0.4-0.3c0,0-0.1,0-0.2,0C15.4,30.9,15.3,30.9,15.3,30.8z"/>
<path class="st0" d="M59.6,9.8c0.1,0,0.1,0.1,0.2,0.1c0.1,0.1,0.2,0.1,0.3,0c0.1,0,0.1,0.1,0.2,0.1c-0.1,0.2-0.3,0.2-0.4,0.3
	c-0.2,0.3-0.1,0.4,0.1,0.6c0.3,0.2,1.6-0.4,1.9-0.6c0,0.4-1.6,0.9-1.3,1.3c0.1,0.2,0.4,0,0.6,0h0.1c-0.1,0.2-0.5,0.1-0.5,0.4
	c0,0.1,0.2,0,0.2,0.2c-0.2,0.1-0.3,0.5-0.5,0c-0.1-0.2-0.3-0.5-0.7-0.3c-0.2,0.1-0.5,0.2-0.7,0.3c-0.1,0-0.2-0.1-0.1-0.2
	c0.2-0.2,0.4-0.3,0.6-0.5c0.2-0.1,0.3-0.3,0.2-0.6c-0.2-0.3-0.4-0.2-0.6-0.1c0.1-0.3,0.4-0.5,0.3-0.8C59.1,10,59.2,10,59.6,9.8z"/>
<path class="st0" d="M42.7,0c-0.2,0.1-0.3,0.4-0.3,1c0,0.1,0,0.3-0.1,0.4c0,0-0.1,0-0.1-0.1c0.1-0.4,0.1-0.8,0.2-1.3H42.7z"/>
<path class="st0" d="M44.1,0c0.2,0,0.3,0.1,0.5,0C44.9,0,45,0.2,45,0.5c-0.2-0.1-0.4-0.3-0.7-0.1c-0.1,0.1-0.2-0.1-0.2-0.2
	C44.1,0,43.9,0,43.8,0c-0.1,0-0.2,0-0.3,0H44.1z"/>
<path class="st0" d="M23,6.2C23,6.1,23,6,23.1,6c0.2,0.3,0.5,0.5,0.6,0.8c0.1,0.5-0.4,0.4-0.6,0.6c-0.4,0.6-1,1-1.4,1.5
	c-0.2,0.3-0.5,0.5-0.8,0.8c-0.2,0.2-0.3,0.1-0.4,0c-0.2-0.2-0.4-0.2-0.5-0.5c0.1-0.1,0.1-0.1,0.2,0s0.2,0.1,0.3,0.2
	c0.3,0.3,0.4,0.2,0.5-0.1c0-0.2,0.3-0.2,0.4-0.3c0.5-0.4,0.9-0.9,1.4-1.4c0.2-0.2,0.1-0.3,0-0.4c-0.3-0.3-0.5-0.6-0.8-0.9
	c0-0.1,0-0.1,0.1-0.1C22.4,6.4,22.7,6.7,23,7c0.1,0.1,0.2,0.2,0.3,0.1c0.1-0.1,0.2-0.2,0.1-0.4C23.3,6.5,23.2,6.4,23,6.2z"/>
<path class="st1" d="M57.6,3.2c0.4-0.7,1-1.3,1.5-1.9c0.2-0.2,0.3-0.4,0.5-0.5c0.1,0.1,0.1,0.1,0,0.2l0,0c0.1-0.2,0.2-0.4,0.4-0.5
	c0.1-0.1,0.2-0.2,0.3,0.1c-0.8,1-1.7,1.9-2.5,2.9C57.7,3.5,57.8,3.2,57.6,3.2z"/>
<path class="st0" d="M13.7,29.4c0.1,0,0.1-0.1,0.2-0.1c0.1,0,0.1,0,0.2,0h0.1c0.4-0.1,0.9-0.3,1.3-0.3c0.1,0,0.4-0.1,0.3,0.2
	c0,0.2,0.1,0.4-0.3,0.5c-0.3,0-0.6,0.1-0.9,0.2c-0.6,0.1-1.1,0.6-1.7,0.5c0.1-0.3,0.5-0.2,0.6-0.5c0.1,0,0.2,0,0.3,0
	c-0.1,0-0.2,0.1-0.3,0C13.7,29.6,13.7,29.5,13.7,29.4z"/>
<path class="st1" d="M15.2,12.8l-0.1,0.1c-0.6-0.1-1.1-0.4-1.5-0.7c-1-0.6-2-1-3.1-1.6c-0.2-0.1-0.3-0.3-0.5-0.3
	c-0.1,0-0.3,0-0.2-0.2c0.1-0.1,0.2,0,0.3,0c0.5,0.2,0.9,0.5,1.3,0.7C12.7,11.6,14,12.1,15.2,12.8z"/>
<path class="st0" d="M53.6,3.6c-0.1,0.1-0.1,0.2-0.2,0.2c-0.1,0-0.1,0-0.1,0c0-0.1,0-0.2,0-0.2c-0.1-0.1-0.2,0-0.2,0.1
	c-0.2,0.3-0.4,0.2-0.6-0.1S51.9,3.3,51.8,3l0,0c0.2,0,0.3-0.2,0.4-0.2c0,0.1,0,0.1,0,0.1c-0.1,0.3,0.1,0.4,0.3,0.4
	c0.2,0.1,0.2-0.1,0.3-0.2c0.6-0.9,1.1-1.8,1.8-2.7l0,0l0,0c-0.1,0.5-0.6,0.9-0.7,1.4c0,0,0,0,0,0.1s-0.1,0.2-0.1,0.2s0,0.1-0.1,0.1
	c-0.1,0.1-0.1,0.1-0.2,0.2c0,0,0,0.1-0.1,0.1c-0.1,0.2-0.2,0.1-0.2,0.2c0,0-0.2,0.4,0,0.4l0,0c0.1,0,0.1,0,0.2,0.1
	c0.1,0.1,0.1,0.2,0.1,0.2C53.7,3.5,53.7,3.6,53.6,3.6z"/>
<path class="st1" d="M14,32.5c-0.3,0.5-0.8,0.4-1.1,0.5c-1.6,0.5-3.2,0.8-4.7,1.5c-0.1,0.1-0.4,0.1-0.4,0c-0.1-0.2,0.2-0.2,0.3-0.2
	c1-0.3,2.1-0.7,3.1-1C12.1,33,13,32.7,14,32.5z"/>
<path class="st1" d="M12.1,32.7c-0.7,0.3-1.5,0.5-2.3,0.8c-0.6,0.2-1.3,0.4-1.9,0.6c-0.2-0.1-0.4,0-0.4-0.2s0.2-0.2,0.3-0.2
	c1.4-0.5,2.9-0.9,4.4-1.3C12.2,32.5,12.1,32.6,12.1,32.7z"/>
<path class="st1" d="M63.9,17.8c0.7,0.1,1.3-0.4,1.9-0.5c0.5-0.1,0.9-0.3,1.4-0.2c-1.4,0.7-2.8,1.1-4.3,1.4c-0.1-0.2,0-0.3,0.2-0.5
	C63.3,17.9,63.6,18,63.9,17.8z"/>
<path class="st0" d="M55.3,42.6c0.4,0.1,0.6,0.4,0.8,0.7c0.1,0.1,0.1,0.2,0.2,0.2c0.1,0,0-0.2,0-0.2c0.4-0.7-0.5-0.8-0.6-1.3
	c0,0,0-0.1,0.1-0.1c0.4,0.3,0.7,0.8,1.1,1.2c0.1,0.1,0.1,0.2,0.1,0.2c-0.5,0.1-0.5,0.8-1,1l-0.1,0.1l0,0c-0.2,0.1-0.4,0.4-0.6,0
	c0.6-0.5,0.5-1.1,0-1.6C55.3,42.6,55.3,42.6,55.3,42.6L55.3,42.6z"/>
<path class="st1" d="M62.9,9.6c1.1-0.7,2.3-1.5,3.4-2.2c0.1-0.1,0.2-0.2,0.3,0c0.1,0.2,0,0.2-0.2,0.3C66,8,65.5,8.3,65.1,8.5
	c-0.7,0.4-1.2,0.9-2,1.1C63,9.7,62.9,9.8,62.9,9.6z"/>
<path class="st1" d="M10,26.2c0.2,0.1,0,0.2,0,0.2c-0.2,0.1-0.4,0.1-0.6,0.1c-0.9-0.1-1.8,0.1-2.7,0.1c-0.1,0-0.3,0.1-0.4-0.2
	C7.5,26.3,8.8,26.1,10,26.2z"/>
<path class="st1" d="M10,24c0,0.1,0,0.1,0,0.2c-1.3,0.1-2.5,0-3.7-0.2c0.7-0.2,1.5-0.1,2.2-0.1C9,23.9,9.5,23.8,10,24z"/>
<path class="st0" d="M60.7,36.2c0,0.1,0,0.1,0,0.2c-0.2,0,0.3,0.2,0.2,0.1c0.1,0.1-0.2-0.1-0.1,0.1c0,0.3-0.2,0.2-0.3,0.2
	c-0.7-0.4-1.4-0.8-2-1.2c-0.1-0.1-0.3-0.1-0.2-0.3s0.3-0.1,0.4,0c0.3,0.1,0.5,0.3,0.8,0.4c0.2,0.1,0.4,0.5,0.5,0c0-0.1,0.2,0,0.3,0
	C60.3,36,60.6,36,60.7,36.2z"/>
<path class="st1" d="M63.7,10.2c0.2-0.4,0.6-0.5,1-0.7c0.8-0.5,1.5-1,2.4-1.4C66.9,8.5,64.4,10,63.7,10.2L63.7,10.2L63.7,10.2z"/>
<path class="st0" d="M63.2,19.2c0.2,0.1,0.3,0.3,0.3,0.5c-0.1,0-0.1,0-0.2,0l0,0l0,0c-0.6,0.4-1.2-0.1-1.9,0c-0.3,0.1-0.6,0.3-1.1,0
	C61.4,19.7,62.3,19.3,63.2,19.2z"/>
<path class="st0" d="M63.1,18.1c-0.1,0.1-0.1,0.3-0.2,0.4c-0.8,0.3-1.7,0.5-2.6,0.7c0.4-0.2,0.8-0.3,1.1-0.6c0.4-0.4,1-0.6,1.6-0.6
	C63.1,18,63.1,18,63.1,18.1z"/>
<path class="st1" d="M65.9,35.7c1,0.4,2,0.7,3,1.1c0.1,0,0.1,0,0.2,0.1s0.3,0,0.2,0.2c-0.1,0.2-0.2,0.1-0.4,0.1
	c-0.5-0.2-1-0.4-1.5-0.7C66.9,36.3,66.3,36.2,65.9,35.7C65.8,35.8,65.8,35.8,65.9,35.7z"/>
<path class="st1" d="M10,27.8c0,0.1,0,0.2,0,0.2c-1.1,0.2-2.2,0.2-3.3,0.4c-0.1,0-0.2,0-0.3-0.1c0-0.1,0.1-0.2,0.2-0.2
	C7.1,28,7.6,28,8,27.9C8.7,27.9,9.4,27.9,10,27.8z"/>
<path class="st0" d="M25.5,47.4c0-0.2-0.1-0.4-0.1-0.6c0-0.2-0.1-0.3-0.2-0.3c0-0.2,0.2-0.3,0.3-0.4c0-0.2,0.2-0.3,0.3-0.4
	c0.2-0.1,0.2,0.1,0.2,0.2c0,0.1-0.1,0.3,0,0.4v0.1c0.1,0.7,0.1,0.7,0.9,0.5c0,0,0,0,0.1,0c-0.1,0.4-0.3,0.5-0.7,0.3
	c-0.2-0.1-0.3,0-0.5,0.1c-0.1,0-0.1,0-0.2,0s-0.1-0.1-0.1-0.1l0,0l0,0C25.6,47.3,25.5,47.4,25.5,47.4z"/>
<path class="st1" d="M60.9,7.4c0-0.1,0-0.1-0.1-0.2c0.7-0.7,1.4-1.2,2.1-1.8c0.1-0.1,0.2-0.1,0.3-0.2s0.2-0.4,0.4-0.2
	c0.1,0.2-0.1,0.3-0.2,0.3C62.6,6.1,61.8,6.8,60.9,7.4z"/>
<path class="st0" d="M54.8,44.2L54.8,44.2c0.2,0.2,0.5,0.3,0.4,0.5c-0.2,0.5-0.7,0.6-1.1,1c-0.3,0.3-0.4,0.5-0.1,0.9
	c0.2,0.2,0.4,0.4,0.5,0.7c-0.1,0.1-0.1,0.1-0.2,0c-0.2-0.3-0.4-0.7-0.7-1c-0.1-0.1-0.3-0.3-0.1-0.4c0.4-0.3,0.6-0.9,1.2-1
	c0.1,0,0.3-0.1,0.1-0.2C54.6,44.6,54.8,44.4,54.8,44.2C54.7,44.1,54.7,44.1,54.8,44.2z"/>
<path class="st0" d="M54.8,5.9C54.7,6,54.7,6,54.7,6.1s0,0.1-0.1,0.2l0,0c-0.6-0.1-0.2-0.5-0.2-0.7c0-0.3,0.2-0.7-0.2-0.9
	c-0.3-0.2-0.6-0.4-0.9,0.1c0.1-0.3-0.3-0.6,0.1-0.9c0,0,0,0,0.1,0c0.4,0.3,0.8,0.6,1.2,0.9C55,5,55,5.2,54.8,5.4
	C54.5,5.5,54.6,5.7,54.8,5.9z"/>
<path class="st1" d="M55,0c-0.1,0.1-0.2,0.3-0.3,0.4c0,0,0,0-0.1,0c0-0.2,0.1-0.3,0.1-0.4H55z"/>
<path class="st0" d="M23.2,45.8c-0.1,0-0.2-0.1-0.3-0.1c0.1-0.3,0.4-0.5,0.2-0.8c-0.1-0.2-0.4-0.3-0.6-0.3c-0.1,0-0.4,0.1-0.4-0.2
	c0-0.1-0.1-0.3,0-0.4c0.2-0.1,0.4,0,0.5,0c0.3,0.1,0.5,0.3,0.8,0.4c0.1,0,0.2,0.5,0.1,0.7C23.3,45.4,23.3,45.6,23.2,45.8z"/>
<path class="st0" d="M51.2,47.7c-0.4-0.4,0.1-0.7,0-1.1c0-0.1,0.1-0.1,0.2-0.1c0.2,0,0.3,0.1,0.5-0.1c0.2-0.2,0.3,0.2,0.4,0.4
	c0,0.1,0,0.1,0,0.2c-0.1,0-0.1,0-0.2-0.1c-0.1,0.4-0.7,0.4-0.7,0.9C51.4,47.9,51.3,48,51.2,47.7z"/>
<path class="st1" d="M19.9,3.8C19,3,18.2,2.1,17.6,1.2c0.9,0.7,1.6,1.6,2.4,2.4C20.1,3.7,20.1,3.8,19.9,3.8z"/>
<path class="st1" d="M23.8,48c0.1-0.1,0.1-0.2,0.2-0.3l0,0l0,0c0.3-0.3,0.5-0.7,0.7-1.1c0.1-0.2,0.2-0.3,0.5-0.2
	c0.2,0,0.3-0.2,0.3-0.4c-0.3,0-0.4-0.1-0.4-0.4c0-0.2-0.1-0.2-0.3-0.2c-0.2,0-0.3,0.2-0.5,0.1c-0.1,0-0.2,0-0.2,0.2
	c0,0.1,0,0.3,0,0.3c0.1,0.1,0.2-0.1,0.3-0.1c0.1-0.1,0.2,0,0.2,0.1c0.1,0,0.1-0.1,0.1-0.1c0,0.1,0,0.1,0,0.2v0.1
	c-0.3,0.4-0.7,0.8-0.9,1.3l0,0l0,0c-0.2,0.1-0.2,0.2-0.3,0.4h0.3C23.8,47.9,23.8,48,23.8,48z"/>
<path class="st1" d="M13.8,10.4c-0.5,0-0.8-0.4-1.2-0.6c-0.7-0.4-1.4-0.8-2-1.3C11.7,9,12.8,9.6,13.8,10.4L13.8,10.4z"/>
<path class="st0" d="M63.1,18.1C63,18.1,63,18,62.9,18c0.4-0.2,0.3-0.5-0.1-0.8c-0.1,0-0.2,0-0.2-0.1c0-0.2,0.4-0.1,0.3-0.3
	c-0.1-0.3-0.2-0.1-0.4-0.1c-0.1,0-0.1-0.1-0.2-0.2c0-0.1,0.1-0.1,0.1-0.1c0.4-0.3,0.6-0.3,0.7,0.3c0,0.3,0.3,0.6,0.3,0.9
	c0,0.2,0.2,0.2,0.4,0.2C63.7,18.1,63.4,18.1,63.1,18.1z"/>
<path class="st1" d="M20,44.3c-0.1,0.3-0.3,0.5-0.6,0.7c-0.5,0.4-0.9,0.9-1.3,1.3c-0.1,0.1-0.2,0.2-0.3,0.1c-0.1-0.1,0-0.2,0-0.2
	c0.6-0.6,1.2-1.2,1.8-1.9C19.8,44.4,19.9,44.4,20,44.3L20,44.3L20,44.3z"/>
<path class="st0" d="M49.8,48c-0.1-0.3-0.3-0.5-0.4-0.7c-0.1-0.2-0.2-0.4-0.3-0.7c0-0.1-0.1-0.2,0-0.3c0.2,0.5,0.5,1,0.7,1.4
	C49.8,47.8,49.9,47.9,49.8,48L49.8,48z"/>
<path class="st0" d="M50.4,48C50.5,48,50.5,48,50.4,48C50.5,47.9,50.5,48,50.4,48L50.4,48z"/>
<path class="st1" d="M22.9,4c-0.1,0.2-0.2,0.3-0.5,0.4l0,0l0,0c-0.1-0.2-0.3-0.3-0.2-0.6c0.1-0.1-0.1-0.2-0.2-0.2
	c-0.3-0.3-0.5-0.6-0.6-1C22,2.9,22.4,3.5,22.9,4z"/>
<path class="st1" d="M50.8,48c0.1-0.2,0.1-0.4,0.4-0.3c0.1,0.1,0.2,0.1,0.3,0.1c0,0.1,0,0.1,0.1,0.2H50.8z"/>
<path class="st1" d="M11.6,20.5l-0.1,0.1c-0.8,0-1.7-0.1-2.5-0.4c0.3-0.3,0.6-0.1,0.8,0C10.4,20.3,11.1,20.2,11.6,20.5z"/>
<path class="st0" d="M26.1,46.3c-0.2,0.1-0.2-0.1-0.2-0.2c0-0.1,0.2-0.3,0-0.4c0.1-0.6,0.6-0.8,1.1-1C26.8,45.3,26.4,45.8,26.1,46.3
	z"/>
<path class="st0" d="M13.7,25.1c0-0.1-0.1-0.2,0.1-0.3c0.1,0.1,0.2,0.2,0.3,0.1c0.8-0.1,1.7,0.1,2.5,0c0.1,0,0.2,0,0.2,0.2
	C15.8,25.2,14.8,25.2,13.7,25.1z"/>
<path class="st0" d="M20.1,40.8c0.1,0.2,0.3,0.3,0.5,0.3c-0.2,0.5-0.9,0.5-1.2,0.9c-0.1,0.1-0.2,0.1-0.2-0.1c0-0.2-0.1-0.4,0.1-0.5
	C19.5,41.3,19.8,41.1,20.1,40.8z"/>
<path class="st1" d="M67.3,22.5c0.7-0.2,1.4-0.2,2.2-0.2c0.1,0,0.2,0,0.2,0.1c0,0.2-0.2,0.1-0.3,0.1c-0.8,0.1-1.6,0.2-2.4,0.1
	C67,22.4,67.1,22.5,67.3,22.5z"/>
<path class="st0" d="M63.7,25.3c0,0.1,0,0.3-0.1,0.4c0,0-0.1,0.1-0.1,0c-0.6,0-1.2,0.2-1.8-0.3C62.5,25.2,63.1,25.3,63.7,25.3z"/>
<path class="st0" d="M56.2,4.8c0.4-0.5,0.7-0.9,1.1-1.4c0.1,0,0.1,0,0.2,0.1c0,0.1,0,0.1,0.1,0.2c0,0.1,0,0.2,0,0.2
	c-0.3,0.4-0.7,0.8-1.1,1.1c0,0,0,0-0.1,0C56.3,4.9,56.3,4.9,56.2,4.8L56.2,4.8z"/>
<path class="st1" d="M57.2,7.1L57.2,7.1c-0.1-0.1,0-0.2,0-0.3c0.6-0.5,1.1-1.1,1.7-1.6C58.5,5.9,57.9,6.6,57.2,7.1z"/>
<path class="st0" d="M20.7,41.9L20.7,41.9c0.2,0.2-0.2,0.3,0,0.4c0.1,0.1,0.2,0.1,0.3,0.2c-0.2,0.3-0.4,0.6-0.8,0.2H20
	c-0.1,0-0.3,0-0.3-0.2c0-0.1,0.2-0.3,0.3-0.3C20.3,42.3,20.5,41.9,20.7,41.9z"/>
<path class="st0" d="M46.2,48c0-0.2,0.1-0.4,0.2-0.6c0.2,0.2,0.3,0.4,0.4,0.6H46.2z"/>
<path class="st1" d="M63.7,10.2L63.7,10.2c-0.2,0.5-0.6,0.5-0.9,0.7c-0.5,0.3-0.9,0.7-1.4,0.8c0,0,0,0,0-0.1l0,0
	C62,11,62.8,10.5,63.7,10.2z"/>
<path class="st1" d="M62.9,9.6c0.1,0,0.1,0.1,0.2,0.1c-0.6,0.5-1.3,0.9-2.1,1.3C61.5,10.3,62.3,10,62.9,9.6z"/>
<path class="st0" d="M59.6,9.8c-0.1,0.1-0.4,0.2-0.3,0.5c-0.2,0.1-0.5,0.2-0.6,0.4s-0.4,0.1-0.6,0c0.3-0.5,0.9-0.7,1.3-1.1
	C59.5,9.7,59.5,9.8,59.6,9.8z"/>
<path class="st0" d="M15.4,18.2l0.1-0.1c0.1,0,0.3,0.1,0.4,0.1H16c0,0,0.1,0,0.1,0.1c0.1,0.1,0.3,0,0.2,0.2c0,0.2-0.3,0-0.3,0.1
	c0,0.2,0.3,0.1,0.3,0.3c-0.5,0.1-0.8-0.1-1.2-0.3c0-0.1,0-0.1,0.1-0.2s-0.5-0.2-0.2-0.1C14.9,18.3,15.3,18.4,15.4,18.2z"/>
<path class="st0" d="M15.2,30.2c0,0.1,0.1,0.1,0.1,0.2c-0.8,0.2-1.6,0.3-2.4,0.5c-0.2,0-0.3,0.1-0.5,0l0,0
	C13.3,30.6,14.2,30.5,15.2,30.2z"/>
<path class="st0" d="M55.2,42.5c-0.5-0.4-0.7-0.9-1.2-1.3c-0.1-0.1-0.2-0.2-0.1-0.3c0.1-0.1,0.2,0.1,0.2,0.1
	c0.3,0.5,0.9,0.8,1.2,1.4C55.2,42.5,55.2,42.5,55.2,42.5z"/>
<path class="st0" d="M48.4,2.4c0.1,0,0.1,0,0.2,0c-0.3,0.7-0.5,1.4-0.8,2h-0.1C47.8,3.7,48.1,3.1,48.4,2.4z"/>
<path class="st0" d="M49.9,1.9c0.1,0,0.1,0,0.2,0c0.1,0,0.1,0,0.2,0C50.4,2.5,50.7,2,50.8,2c0.3,0.6-0.3,0.8-0.4,1.2
	c-0.1,0.1-0.2,0.1-0.2-0.1c0-0.1,0.1-0.1,0.1-0.2c0.2-0.3,0.4-0.6-0.2-0.7C50,2.1,49.9,2,49.9,1.9C49.9,2,49.8,1.9,49.9,1.9
	L49.9,1.9z"/>
<path class="st1" d="M13.1,31.6c-0.5,0.1-0.9,0.2-1.4,0.3c-0.1,0-0.2,0-0.2-0.1s0-0.1,0.1-0.1c0.5-0.1,1-0.4,1.5-0.3
	C13.1,31.5,13.1,31.6,13.1,31.6z"/>
<path class="st1" d="M64.9,23.8c-0.1-0.1,0-0.1,0-0.1c0.4-0.2,0.8-0.1,1.3-0.1c0.1,0,0.2,0,0.2,0.1s-0.1,0.1-0.2,0.1
	C65.8,23.9,65.3,24,64.9,23.8z"/>
<path class="st1" d="M64.8,23.2c0-0.1,0-0.1,0-0.2c0.2-0.1,0.5,0,0.6-0.2l0,0c0,0,0.1,0,0.2,0l0,0c0.1,0.2,0.3,0.1,0.4,0.1
	s0.2,0,0.2,0.2s-0.1,0.1-0.2,0.1C65.6,23.2,65.2,23.4,64.8,23.2z"/>
<path class="st1" d="M68.4,34.2c0.1,0,0.1,0,0.2-0.1c0.6,0,1,0.3,1.5,0.5C69.5,34.7,68.9,34.5,68.4,34.2z"/>
<path class="st1" d="M54.5,1.8c0.4,0,0.4-0.5,0.7-0.7c0.2-0.2,0.3-0.6,0.5-0.5c0.2,0.2-0.1,0.4-0.2,0.6c-0.2,0.3-0.4,0.6-0.6,0.9
	c-0.1,0.1-0.2,0-0.3-0.1C54.4,2,54.4,1.9,54.5,1.8L54.5,1.8z"/>
<path class="st0" d="M14.2,32.6c0.7-0.5,1.5-0.7,2.3-0.7C15.8,32.1,15,32.3,14.2,32.6z"/>
<path class="st0" d="M28.1,46.5c0-0.1,0-0.1,0-0.2c0-0.5,0.4-0.8,0.5-1.2c0-0.1,0.1-0.2,0.2-0.1c0.1,0,0.1,0.2,0,0.3
	C28.6,45.7,28.4,46.2,28.1,46.5z"/>
<path class="st0" d="M62.3,32.2c0.1,0.1-0.1,0.2-0.1,0.3c-0.3,0-0.6-0.1-0.8-0.3c-0.1,0-0.2-0.1-0.2-0.2c0-0.1,0.1-0.1,0.2-0.1
	C61.8,31.9,62.1,32,62.3,32.2z"/>
<path class="st0" d="M17,35.4c0.1,0,0.3,0,0.5,0c-0.2,0.1-0.5,0.2-0.2,0.5c-0.5,0.1-0.8,0.6-1.4,0.5c0.2-0.3,0.5-0.4,0.7-0.5
	C16.8,35.9,17,35.7,17,35.4z"/>
<path class="st0" d="M49.2,46.3c0,0.1,0,0.2,0,0.3c-0.3-0.5-0.5-1-0.7-1.5C48.9,45.4,49,45.8,49.2,46.3z"/>
<path class="st0" d="M16.5,16c0-0.1,0-0.1,0-0.2c0.6,0.3,1.2,0.4,1.7,0.8C17.6,16.5,17,16.3,16.5,16z"/>
<path class="st1" d="M64.8,21.6v-0.1c0.3-0.2,0.6-0.2,1-0.2c0.1,0,0.3,0,0.3,0.2s-0.1,0.2-0.2,0.2C65.5,21.6,65.1,21.6,64.8,21.6z"
	/>
<path class="st0" d="M58.9,12.2c0,0.1,0.1,0.1,0.1,0.2c-0.3,0.3-0.7,0.5-1.1,0.7c-0.1,0-0.2,0.1-0.2,0c-0.1-0.1,0-0.2,0.1-0.2
	C58.2,12.7,58.5,12.4,58.9,12.2z"/>
<path class="st1" d="M59,48c-0.9-1.1-1.8-2.1-2.7-3.1h-0.1h-0.1l0,0c0,0,0,0,0-0.1c-0.1-0.2-0.3-0.3-0.1-0.5c-0.2-0.1-0.4,0.3-0.6,0
	c-0.2,0.1-0.3,0-0.5,0c0,0.2,0.3,0.2,0.3,0.4c0.3-0.1,0.3,0.3,0.5,0.3l0,0l0,0c0.1,0.2,0.2,0.4,0.4,0.5c0.1,0.1,0.2,0.4,0.4,0.3
	c0.3-0.1,0.4,0.1,0.5,0.3c0.6,0.6,1.2,1.3,1.7,1.9C58.7,48,59,48,59,48z M55.9,44.9L55.9,44.9L55.9,44.9L55.9,44.9z"/>
<path class="st0" d="M15.3,22.7c0,0,0-0.1,0.1-0.1c0.5-0.2,1,0.1,1.5,0.1c0.1,0,0.2,0.1,0.1,0.2c0,0.1-0.1,0.1-0.2,0.1
	C16.2,22.8,15.7,22.8,15.3,22.7z"/>
<path class="st0" d="M62.7,15.6c0.2,0.1,0.4,0,0.5,0c-0.5,0.2-1,0.4-1.6,0.5C61.9,15.8,62.3,15.7,62.7,15.6z"/>
<path class="st1" d="M17.7,40.1L17.7,40.1c0.2-0.4,0.6-0.4,0.8-0.6c0.1,0,0.2,0.1,0.3,0.2c-0.3,0.2-0.6,0.5-0.8,0.7
	c-0.1,0.1-0.2,0.1-0.3,0C17.5,40.3,17.6,40.2,17.7,40.1z"/>
<path class="st1" d="M68.4,30.6c0.6,0,1.2,0.1,1.7,0.3C69.5,31,68.9,30.8,68.4,30.6C68.3,30.6,68.3,30.6,68.4,30.6z"/>
<path class="st0" d="M55.9,41.8L55.9,41.8c-0.4-0.1-0.7-0.4-1-0.7c-0.1-0.1-0.1-0.1-0.1-0.2c0.1-0.1,0.2,0,0.3,0
	C55.4,41.2,55.6,41.5,55.9,41.8z"/>
<path class="st1" d="M64.6,30.2c-0.1,0.1-0.1,0.2,0,0.2c0.4,0.1,0.1,0.3,0,0.4c-0.3-0.2-0.6-0.5-0.9-0.6c0-0.1,0.1-0.2,0.2-0.2
	C64.1,30,64.4,30.2,64.6,30.2z"/>
<path class="st0" d="M13.1,31.6c0-0.1,0-0.2,0-0.3c0.5-0.1,0.9-0.4,1.5-0.3c0,0,0,0,0,0.1l0,0C14.1,31.4,13.5,31.4,13.1,31.6z"/>
<path class="st0" d="M25.9,3.4c0.1,0,0.1,0,0.2,0c0,0,0,0,0,0.1l0.1,0.1c0.3,0.3,0.6,0.6,0.6,1.2C26.3,4.4,26.2,3.8,25.9,3.4z"/>
<path class="st0" d="M29.9,47.2c0-0.4,0.3-0.8,0.4-1.2c0-0.1,0.1-0.1,0.2-0.1s0.1,0.1,0.1,0.2c-0.1,0.4-0.2,0.7-0.5,1
	C30,47.3,30,47.3,29.9,47.2z"/>
<path class="st0" d="M48.1,48c-0.1-0.2-0.2-0.4-0.3-0.6c0-0.1-0.1-0.2,0.1-0.3c0.1,0,0.2,0.1,0.2,0.2c0,0.3,0.2,0.5,0.3,0.7L48.1,48
	z"/>
<path class="st0" d="M30.8,2.7c0.1,0,0.1,0,0.2,0c0.2,0.3,0.2,0.7,0.4,1.1c0,0.1,0,0.2-0.1,0.2s-0.2,0-0.2-0.1
	C31,3.5,30.7,3.2,30.8,2.7z"/>
<path class="st0" d="M63.3,20.4c0,0.1,0,0.1,0,0.2c-0.3,0.1-0.7,0.2-1,0.3c-0.1,0-0.2,0-0.2-0.1c0-0.2,0.1-0.2,0.2-0.2
	C62.6,20.5,62.9,20.4,63.3,20.4z"/>
<path class="st0" d="M30.1,3.4c0-0.2-0.1-0.4,0-0.5c0.1,0.5,0.6,0.9,0.4,1.4C30.2,4.1,30.3,3.7,30.1,3.4z"/>
<path class="st0" d="M28.1,3.4c0.1,0,0.1-0.1,0.2-0.1c0.1,0.4,0.6,0.6,0.4,1.2C28.4,4.1,28.3,3.7,28.1,3.4z"/>
<path class="st0" d="M63.9,30.1c0,0.1-0.1,0.2-0.2,0.2c-0.4,0-0.8-0.1-1.1-0.3C63,30,63.4,30,63.9,30.1z"/>
<path class="st0" d="M54,1.8c0.3,0,0.3-0.3,0.5-0.4c0.1,0,0.1,0,0.2,0c-0.1,0.1-0.1,0.2-0.2,0.3l0,0c-0.1,0.1,0,0.1,0,0.2
	c0,0.1,0,0.1-0.1,0.2c0,0.1,0,0.2-0.1,0.2c0,0.1-0.1,0.1-0.1,0.1c-0.1,0.1-0.2,0.1-0.3,0.1c-0.1-0.1-0.1-0.1-0.1-0.2
	c0-0.1,0-0.1,0.1-0.2l0,0C53.9,2.1,53.9,1.9,54,1.8L54,1.8z"/>
<path class="st0" d="M27.4,45.9c0.2-0.4,0.4-0.8,0.6-1.2c0-0.1,0.1-0.2,0.2-0.1c0.1,0.1,0,0.1,0,0.2c-0.2,0.4-0.4,0.7-0.7,1.1
	C27.5,46,27.5,46,27.4,45.9z"/>
<path class="st1" d="M32.2,0c0,0.2,0.1,0.3,0.1,0.5c-0.1,0-0.2,0-0.3,0c0-0.2,0-0.3,0-0.5H32.2z"/>
<path class="st1" d="M19.9,3.8c0-0.1,0.1-0.1,0.1-0.2c0.3,0.4,0.7,0.8,1,1.2c0,0.1-0.1,0.1-0.2,0C20.5,4.5,20.1,4.3,19.9,3.8z"/>
<path class="st1" d="M52.9,48c-0.2-0.3-0.5-0.6-0.5-1c0-0.1,0-0.1,0-0.2c0.4,0.3,0.5,0.8,0.8,1.2H52.9z"/>
<path class="st1" d="M60.9,12.4c-0.1-0.1-0.1-0.1-0.2-0.2c0.4,0.1,0.7-0.2,1-0.4c0.2-0.1,0.4-0.2,0.6-0.3c0,0.1,0,0.2,0,0.3
	c-0.3,0-0.6,0.2-0.8,0.4C61.3,12.3,61.1,12.4,60.9,12.4z"/>
<path class="st1" d="M59.5,8.2L59.5,8.2c-0.3,0.1-0.4,0.4-0.7,0.3l0,0c0-0.4,0.4-0.5,0.6-0.7h0.2C59.7,7.9,59.6,8,59.5,8.2z"/>
<path class="st0" d="M46.9,0.5c0.1,0,0.1,0.1,0.2,0.1c-0.2,0.4-0.2,0.9-0.5,1.3C46.5,1.4,46.9,1,46.9,0.5z"/>
<path class="st1" d="M65.9,35.7L65.9,35.7c-0.5,0.1-0.9-0.2-1.4-0.4c0.1,0,0.2,0,0.3-0.1C65.2,35.4,65.5,35.6,65.9,35.7z"/>
<path class="st1" d="M15.4,38c-0.2,0.1-0.3,0.2-0.5,0.3c-0.1,0-0.2,0.1-0.3,0c0-0.3,0.1-0.3,0.2-0.3c0.3,0,0.5-0.3,0.8-0.4
	c0.1-0.1,0.3-0.2,0.5-0.2C16,37.9,15.6,37.8,15.4,38z"/>
<path class="st0" d="M54.5,44c-0.3-0.2-0.5-0.5-0.7-0.9c0.5,0.1,0.6,0.5,0.8,0.8C54.6,43.9,54.6,44,54.5,44z"/>
<path class="st0" d="M63.5,27v0.1c-0.4,0-0.7,0.1-1.2-0.2C62.8,26.8,63.2,26.9,63.5,27z"/>
<path class="st1" d="M16.5,33.1c0,0.1,0,0.1,0,0.2c-0.3,0.3-0.7,0.3-1,0.4C15.7,33.3,16.1,33.2,16.5,33.1z"/>
<path class="st0" d="M50.1,3.1c0.1,0,0.1,0.1,0.2,0.1c-0.1,0.3-0.2,0.7-0.6,0.9C49.8,3.7,49.9,3.4,50.1,3.1z"/>
<path class="st1" d="M14,26.2v-0.1c0.5,0,1.1-0.1,1.6-0.1c0,0.1,0,0.1-0.1,0.1C15,26.2,14.5,26.2,14,26.2z"/>
<path class="st0" d="M62.9,24.1v0.1c-0.2,0.1-0.5,0-0.8,0.1c-0.1,0-0.2,0-0.2-0.1s0.1-0.1,0.2-0.1C62.4,24,62.7,23.9,62.9,24.1z"/>
<path class="st1" d="M20.8,4.8c0.1,0,0.1,0,0.2,0c0.3,0.2,0.5,0.5,0.7,0.8c0,0.1-0.1,0.1-0.2,0.1c-0.2-0.2-0.4-0.4-0.5-0.5l0,0
	C20.9,5,20.9,4.9,20.8,4.8z"/>
<path class="st0" d="M24.5,5c0-0.1,0-0.1,0.1-0.2c0.3,0.3,0.4,0.6,0.5,1C24.9,5.5,24.5,5.4,24.5,5z"/>
<path class="st1" d="M64.2,29.8c0.3-0.3,0.7,0,1.1-0.1c0.1,0.1,0.3,0.1,0.4,0.2c-0.5,0.2-0.9-0.2-1.3,0
	C64.3,29.9,64.3,29.9,64.2,29.8z"/>
<path class="st1" d="M16.6,37.4c0.1,0,0.3,0.1,0.2,0.1c-0.4,0.2-0.6,0.6-1.1,0.5v-0.1c0.2-0.3,0.5-0.3,0.7-0.5
	C16.5,37.4,16.6,37.3,16.6,37.4z"/>
<path class="st0" d="M51.8,3c-0.2,0.1-0.4-0.1-0.7,0c-0.1-0.4,0.2-0.6,0.5-0.8C51.4,2.6,51.6,2.8,51.8,3L51.8,3z"/>
<path class="st1" d="M55.4,0c0,0.1-0.1,0.1-0.1,0.2c-0.3,0.4-0.7,0.9-0.8,1.3c0.1,0,0.1,0,0.2,0c0.2-0.3,0.7-0.8,0.8-1.3
	c0-0.1,0.1-0.1,0.1-0.2L55.4,0z"/>
<path class="st0" d="M25.7,4.1h0.1c0.2,0.2,0.5,0.4,0.5,0.7l-0.1,0.1C25.9,4.7,25.8,4.4,25.7,4.1z"/>
<path class="st0" d="M15.5,26.1c0,0,0-0.1,0.1-0.1c0.4,0,0.8,0,1.3,0c-0.4,0.2-0.8,0.2-1.2,0.2C15.6,26.2,15.6,26.2,15.5,26.1
	L15.5,26.1z"/>
<path class="st0" d="M57.2,8.2c0,0.1,0,0.1,0,0.2c-0.2,0.3-0.4,0.5-0.8,0.7C56.6,8.7,56.9,8.5,57.2,8.2z"/>
<path class="st0" d="M42.4,47.7L42.4,47.7c-0.2-0.3-0.2-0.7-0.2-1.1C42.4,47,42.4,47.3,42.4,47.7z"/>
<path class="st0" d="M63.1,26.5c-0.2,0-0.5,0.1-0.8-0.2c0.4-0.1,0.7,0,1,0C63.3,26.6,63.2,26.5,63.1,26.5z"/>
<path class="st1" d="M62.2,35.6c0.1,0,0.2,0.1,0.2,0.1c-0.2,0.2-0.1,0.5-0.4,0.8C62.1,36.2,61.8,35.9,62.2,35.6z"/>
<path class="st0" d="M20.2,9.2c-0.1,0-0.1,0-0.2,0c-0.2-0.1-0.4-0.3-0.5-0.4l0.1-0.1c0.2,0,0.4,0.2,0.6,0.4
	C20.2,9.1,20.2,9.2,20.2,9.2z"/>
<path class="st1" d="M60.5,0.5C60,0.4,60,1,59.7,1.1l0,0c0-0.1,0-0.2,0-0.3l0,0c0.1-0.1,0.2-0.2,0.4-0.4l0,0
	c0.1-0.1,0.1-0.1,0.2-0.1C60.4,0.3,60.6,0.3,60.5,0.5z"/>
<path class="st1" d="M17,37c0.1-0.1,0.3-0.1,0.4-0.2c0.2-0.1,0.2,0.1,0.2,0.2c-0.1,0.1-0.2,0.2-0.3,0.2C17.1,37.4,17,37.3,17,37z"/>
<path class="st1" d="M14.5,31.2v-0.1c0.2-0.3,0.6-0.1,0.8-0.3c0,0.1,0.1,0.1,0.1,0.2C15.2,31.1,14.9,31.2,14.5,31.2z"/>
<path class="st1" d="M54.2,2.4L54.2,2.4c0.1-0.2,0.1-0.3,0.1-0.4c0,0,0,0,0-0.1s0.1-0.1,0.1,0s0.1,0.2,0.2,0.2
	c-0.2,0.2-0.3,0.5-0.6,0.6c-0.1,0-0.1,0-0.1-0.1C54,2.6,54.1,2.5,54.2,2.4z"/>
<path class="st0" d="M26.9,3.1L26.9,3.1c0.3,0.1,0.4,0.3,0.4,0.6c0,0-0.1,0.1-0.1,0C27,3.6,26.9,3.3,26.9,3.1z"/>
<path class="st0" d="M16.6,37.4L16.6,37.4c-0.2,0.1-0.4,0.2-0.5,0.1c-0.2,0-0.4,0.1-0.6,0.2c0.3-0.2,0.6-0.4,1-0.5
	c0.1,0,0.1,0,0.2,0.1C16.7,37.3,16.7,37.3,16.6,37.4z"/>
<path class="st1" d="M16.1,37.5c0.1,0,0.3,0,0.4-0.1c-0.2,0.2-0.5,0.3-0.8,0.5c-0.1,0-0.2,0-0.4,0C15.6,37.8,15.9,37.7,16.1,37.5z"
	/>
<path class="st0" d="M63.2,29c0,0.1,0,0.1,0,0.2c-0.2,0-0.5-0.1-0.7-0.1C62.8,28.9,63,28.9,63.2,29z"/>
<path class="st0" d="M12.1,32.7c0-0.1,0-0.2,0.1-0.3c0.2-0.2,0.4-0.1,0.6-0.1c0,0.1,0,0.1,0,0.2C12.6,32.7,12.3,32.6,12.1,32.7z"/>
<path class="st0" d="M27.4,45.9h0.1c-0.1,0.3-0.2,0.6-0.5,0.8h-0.1C27.1,46.4,27.2,46.1,27.4,45.9z"/>
<path class="st1" d="M53.6,3.6c0-0.1,0-0.1,0-0.2c0-0.1,0-0.1,0-0.2V3.1c0-0.1,0-0.1,0.1-0.2l0.1-0.1c0.1-0.1,0.2-0.2,0.3-0.2
	c0,0,0.1,0,0.1,0.1C54.1,3.1,53.9,3.4,53.6,3.6z"/>
<path class="st0" d="M46.5,0.3L46.5,0.3c0.1,0.3,0.1,0.5-0.1,0.8C46.3,0.8,46.4,0.6,46.5,0.3z"/>
<path class="st0" d="M28.3,47.1c0-0.1-0.1-0.1-0.1-0.2c0-0.2,0.1-0.5,0.3-0.5c0.2-0.1,0.2,0.2,0.1,0.3c0,0.1-0.1,0.1-0.1,0.2
	C28.4,47,28.3,47.1,28.3,47.1z"/>
<path class="st1" d="M58.4,7.5c0-0.1-0.1-0.1-0.1-0.2C58.4,7.2,58.6,7,58.7,7l0.1,0.1C58.8,7.3,58.6,7.4,58.4,7.5z"/>
<path class="st1" d="M64.7,22.2c0-0.1,0-0.2,0.1-0.3c0.2,0,0.4,0,0.4,0.2C65.1,22.4,64.8,22.2,64.7,22.2z"/>
<path class="st0" d="M21.5,5.7c0.1,0,0.1-0.1,0.2-0.1c0.2,0.1,0.3,0.3,0.4,0.5L22,6.2C21.8,6,21.7,5.9,21.5,5.7z"/>
<path class="st1" d="M64.6,25c0,0.1,0,0.3-0.2,0.4c-0.1-0.2-0.2-0.3-0.2-0.5C64.4,25,64.5,24.9,64.6,25z"/>
<path class="st1" d="M57.4,3.7c0-0.1,0-0.1,0-0.2c0-0.2,0.2-0.2,0.3-0.3l0,0c0.2,0,0.1,0.2,0.3,0.2c-0.1,0.1-0.1,0.2-0.2,0.3
	C57.6,3.6,57.5,3.8,57.4,3.7z"/>
<path class="st1" d="M64.3,26.5c-0.1,0-0.2-0.1-0.2-0.1c0.1-0.1,0.1-0.3,0-0.4c0.1,0,0.2,0,0.2,0C64.3,26.1,64.3,26.3,64.3,26.5z"/>
<path class="st1" d="M29.9,47.2c0.1,0,0.1,0,0.2,0c0.1,0.2-0.2,0.4-0.2,0.5c-0.1,0-0.1,0-0.2,0C29.7,47.5,29.7,47.3,29.9,47.2z"/>
<path class="st1" d="M50.3,0L50.3,0h-1.7c0,0,0.1,0.1,0.1,0.2c0,0.2-0.3,0.3-0.1,0.6c0.1-0.2,0.2-0.3,0.3-0.5c0.4,0,0.3,0.1,0.2,0.4
	c-0.3,0.6-0.5,1.2-0.7,1.8c0.1,0.1,0.1,0.1,0.2,0c0.2-0.5,0.5-1,0.7-1.5c0.2-0.4,0.4-0.7,0.9-0.5c0,0.1-0.1,0.2-0.1,0.4l0,0l0,0
	c-0.1,0.3-0.2,0.5-0.3,0.8c-0.1,0.2-0.1,0.4,0.2,0.4V2c0-0.4,0.4-0.7,0.4-1.1c0.3-0.2,0.2-0.5,0.4-0.7V0.1L50.3,0z"/>
<path class="st1" d="M47.1,0c-0.1,0.2-0.2,0.3-0.2,0.5C47,0.6,47,0.6,47.1,0.6c0.1-0.2,0.2-0.4,0.2-0.6H47.1z"/>
<path class="st1" d="M46.6,0c0,0.1,0,0.2,0,0.3c0.1,0.1,0.1,0.1,0.1,0s0.1-0.2,0.1-0.3H46.6z"/>
<path class="st1" d="M45.5,0c0,0.2-0.1,0.3,0,0.5c0.1-0.2,0.1-0.3,0.2-0.5H45.5z"/>
<path class="st1" d="M20.2,37.1c-0.1,0-0.2,0-0.3,0c0.2-0.1,0.4-0.2,0.6-0.4C20.5,37,20.3,37.1,20.2,37.1z"/>
<path class="st0" d="M16.9,34.4L16.9,34.4c0,0.1-0.1,0.3-0.2,0.3l-0.1-0.1C16.6,34.4,16.8,34.5,16.9,34.4z"/>
<path class="st1" d="M63.1,26.5c0.1-0.1,0.2,0,0.3-0.2c0.1,0,0.2,0,0.3,0c0,0.1,0,0.1,0,0.2C63.5,26.5,63.2,26.7,63.1,26.5z"/>
<path class="st1" d="M55.1,48c-0.1-0.2-0.3-0.4-0.4-0.5c-0.1-0.1-0.1-0.1-0.2-0.2c-0.1,0-0.1,0-0.2,0c0.1,0.2,0.2,0.4,0.3,0.5l0,0
	c0,0,0,0.1,0.1,0.1L55.1,48z"/>
<path class="st0" d="M24.7,46.2c0-0.2,0-0.4,0.3-0.4c0,0.2-0.1,0.4-0.2,0.6C24.7,46.2,24.7,46.2,24.7,46.2z"/>
<path class="st1" d="M67.3,22.5c-0.1,0-0.2,0-0.3,0.2c-0.1,0.1-0.2,0-0.3,0v-0.1C66.9,22.4,67.1,22.4,67.3,22.5z"/>
<path class="st1" d="M67.1,30.5c0.2-0.1,0.4-0.2,0.6,0.1C67.5,30.5,67.3,30.5,67.1,30.5z"/>
<path class="st1" d="M68.4,30.6v0.1c-0.2,0-0.3-0.1-0.4-0.1l0.1-0.1C68.2,30.4,68.3,30.4,68.4,30.6z"/>
<path class="st1" d="M54.5,44L54.5,44c0.2,0,0.2,0.1,0.3,0.2h-0.1C54.6,44.1,54.5,44,54.5,44z"/>
<path class="st1" d="M57.7,3.2c0,0.2-0.1,0.3-0.3,0.3l-0.1-0.1C57.4,3.3,57.5,3.2,57.7,3.2z"/>
<path class="st1" d="M57.4,3.7c0.1,0,0.1-0.4,0.3-0.1c-0.1,0.1-0.1,0.1-0.2,0.2C57.5,3.9,57.5,3.8,57.4,3.7z"/>
<path class="st1" d="M60.1,0.4C60,0.6,60,0.7,59.7,0.8C59.8,0.6,59.8,0.4,60.1,0.4z"/>
<path class="st1" d="M60.3,0.3c-0.1,0.1-0.1,0.1-0.2,0.1c0-0.1,0-0.2,0.1-0.2C60.2,0.1,60.2,0.2,60.3,0.3z"/>
<path class="st1" d="M27.3,1.5c-0.1,0-0.1,0-0.2,0l0,0l0,0c0-0.1,0-0.2,0.1-0.3C27.2,1.3,27.3,1.4,27.3,1.5z"/>
<path class="st1" d="M14,10.4v0.1c-0.1,0-0.2,0-0.2-0.1c0,0,0-0.1,0.1-0.1C13.9,10.4,13.9,10.4,14,10.4z"/>
<path class="st1" d="M15.5,26.1c0.1,0,0.1,0,0.2,0C15.6,26.2,15.6,26.2,15.5,26.1z"/>
<path class="st1" d="M21,5.1L21,5.1C21,5.2,20.9,5.1,21,5.1C20.9,5.1,21,5.1,21,5.1z"/>
<path class="st1" d="M59,9.7l0.1-0.1l0,0C59.2,9.6,59.1,9.7,59,9.7L59,9.7z"/>
<path class="st1" d="M59.1,9.7c0,0.1-0.1,0.1-0.1,0.1l0,0C58.9,9.7,59,9.7,59.1,9.7L59.1,9.7z"/>
<path class="st1" d="M50.2,1.8c-0.1,0-0.1,0-0.2,0C50.1,1.8,50.2,1.6,50.2,1.8z"/>
<path class="st0" d="M27,46.9c0-0.1,0-0.2,0.1-0.2c0,0,0,0,0.1,0C27.1,46.8,27,46.9,27,46.9L27,46.9z"/>
<path class="st0" d="M55.2,42.5L55.2,42.5L55.2,42.5L55.2,42.5L55.2,42.5z"/>
<path class="st0" d="M63.2,19.8C63.2,19.7,63.3,19.7,63.2,19.8C63.3,19.7,63.2,19.8,63.2,19.8z"/>
<path class="st0" d="M61.2,11.7l-0.1,0.1c0,0,0,0-0.1,0C61.1,11.7,61.1,11.7,61.2,11.7C61.2,11.6,61.2,11.7,61.2,11.7z"/>
<path class="st1" d="M56.2,44.9L56.2,44.9C56.1,44.9,56.1,44.9,56.2,44.9c-0.1-0.1-0.1-0.1-0.1-0.2C56.2,44.8,56.2,44.9,56.2,44.9z"
	/>
<path class="st1" d="M56,44.2L56,44.2C56.1,44.1,56.1,44.2,56,44.2z"/>
<path class="st0" d="M26.2,3.6c0,0,0-0.1-0.1-0.1C26.1,3.5,26.2,3.5,26.2,3.6z"/>
<path class="st1" d="M63.6,25.8L63.6,25.8l0.1,0.1C63.7,25.8,63.6,25.8,63.6,25.8z"/>
<path class="st0" d="M61.3,11.5v0.1c0,0,0,0-0.1,0c0,0,0,0-0.1-0.1C61.2,11.6,61.2,11.6,61.3,11.5z"/>
<path class="st0" d="M17.5,34.4c0-0.1,0.1-0.1,0.2-0.1v0.1C17.7,34.4,17.6,34.4,17.5,34.4C17.6,34.4,17.6,34.4,17.5,34.4z"/>
<path class="st1" d="M25.8,0v0.1c0,0,0,0,0,0.1C25.8,0.1,25.8,0.1,25.8,0C25.7,0.1,25.7,0,25.8,0h-0.7c0.2,0.4,0.4,0.7,0.6,1.1
	C25.9,1,26.1,0.9,26,0.8l0,0C26.1,0.9,26.2,1,26.4,1c0.1,0,0.2,0,0.2,0.1l0,0l0,0C26.9,1.5,26.9,1,27,0.9c-0.1-0.3-0.3-0.6-0.4-0.9
	H25.8z"/>
<path class="st0" d="M63.8,24.3C63.8,24.3,63.7,24.3,63.8,24.3C63.7,24.2,63.8,24.2,63.8,24.3L63.8,24.3z"/>
<path class="st1" d="M59.6,1.2l-0.1,0.1C59.5,1.1,59.6,1.2,59.6,1.2L59.6,1.2z"/>
<path class="st1" d="M13.6,29.8c0.1,0,0.2,0,0.3,0C13.8,29.8,13.7,29.9,13.6,29.8C13.5,29.8,13.6,29.8,13.6,29.8z"/>
<path class="st1" d="M53.8,2.4c0,0.1,0.3,0.1,0.3,0.2c0.1,0.2-0.3,0.3-0.4,0.4l0,0c0,0.1,0,0.2-0.1,0.2l0,0c-0.1,0.1-0.1,0.1-0.2,0
	c0,0-0.2-0.1-0.3-0.1c-0.2-0.3,0.4-0.5,0.4-0.7l0,0C53.6,2.3,53.7,2.3,53.8,2.4z"/>
<g>
	<path class="st0" d="M32.4,0c3,11.2,6.6,25,6.6,25l4.8-8.3c0,0-4.6-7.6-9.1-16.7H32.4z"/>
	<path class="st0" d="M45,48c-2.9-10.8-6.1-23.2-6.1-23.2l-4.8,8.3c0,0,4,6.6,8.2,14.9H45z"/>
	<path class="st0" d="M0.8,34.9C7.1,33.2,39,24.8,39,24.8l-8.3-4.7C30.7,20.1,14.2,30.1,0.8,34.9z"/>
	<path class="st0" d="M77,14.9c-6.3,1.6-38.2,10-38.2,10l8.3,4.8C47.1,29.7,63.6,19.7,77,14.9z"/>
	<polygon class="st0" points="30.9,20.1 22,15 30.9,17.3 	"/>
	<g>
		<path class="st0" d="M23.5,16.1l6.9,4l-1.9,1.1L23.5,16.1 M22,15l6.4,6.6l2.4-1.4L22,15L22,15z"/>
	</g>
	<polygon class="st0" points="43.7,16.8 48.8,8 46.5,16.9 	"/>
	<g>
		<path class="st0" d="M47.7,9.4l-4,6.9l-1.1-1.9L47.7,9.4 M48.8,8l-6.6,6.4l1.4,2.4L48.8,8L48.8,8z"/>
	</g>
	<polygon class="st0" points="47,29.6 55.9,34.8 47,32.4 	"/>
	<g>
		<path class="st0" d="M49.4,28.5l5,5.1l-6.9-4L49.4,28.5 M49.5,28.2l-2.4,1.4l8.8,5.2L49.5,28.2L49.5,28.2z"/>
	</g>
	<polygon class="st0" points="34.2,33 29,41.8 31.4,32.9 	"/>
	<g>
		<path class="st0" d="M34.2,33.5l1.1,1.9l-5.1,5L34.2,33.5 M34.2,33L29,41.9l6.6-6.4L34.2,33L34.2,33z"/>
	</g>
</g>
<text transform="matrix(1 0 0 1 179.7003 -182.1561)" class="st0" style="font-family:'DIN2014-Light'; font-size:33px;">initiative</text>
</svg>
